PathFileType	4	(X/Y/Z)	 static.trc
DataRate	CameraRate	NumFrames	NumMarkers	Units	OrigDataRate	OrigDataStartFrame	OrigNumFrames
200	200	8	43	m	200	1	400
Frame#	Time	C7			LSH			RSH			MAN			RASI			LASI			HIPR			HIPL			RPSI			LPSI			COX			RTHI1			RTHI2			RTHI3			RTHI4			RLKN			RMKN			RSHA1			RSHA2			RSHA3			RSHA4			RLMAL			RMMAL			RHEEL			RMET5			RMET1			RTOE			LTHI1			LTHI2			LTHI3			LTHI4			LLKN			LMKN			LSHA1			LSHA2			LSHA3			LSHA4			LLMAL			LMMAL			LHEEL			LMET5			LMET1			LTOE			
		X1	Y1	Z1	X2	Y2	Z2	X3	Y3	Z3	X4	Y4	Z4	X5	Y5	Z5	X6	Y6	Z6	X7	Y7	Z7	X8	Y8	Z8	X9	Y9	Z9	X10	Y10	Z10	X11	Y11	Z11	X12	Y12	Z12	X13	Y13	Z13	X14	Y14	Z14	X15	Y15	Z15	X16	Y16	Z16	X17	Y17	Z17	X18	Y18	Z18	X19	Y19	Z19	X20	Y20	Z20	X21	Y21	Z21	X22	Y22	Z22	X23	Y23	Z23	X24	Y24	Z24	X25	Y25	Z25	X26	Y26	Z26	X27	Y27	Z27	X28	Y28	Z28	X29	Y29	Z29	X30	Y30	Z30	X31	Y31	Z31	X32	Y32	Z32	X33	Y33	Z33	X34	Y34	Z34	X35	Y35	Z35	X36	Y36	Z36	X37	Y37	Z37	X38	Y38	Z38	X39	Y39	Z39	X40	Y40	Z40	X41	Y41	Z41	X42	Y42	Z42	X43	Y43	Z43	
1	0.0050	-0.373991	1.340720	-0.530010	-0.298770	1.311276	-0.690379	-0.298140	1.307341	-0.370680	-0.255439	1.281870	-0.530268	-0.209241	0.857943	-0.415596	-0.234613	0.853464	-0.652912	-0.250614	0.927468	-0.390181	-0.268183	0.923138	-0.667670	-0.382556	0.898959	-0.483773	-0.391499	0.897613	-0.554581	-0.383937	0.904954	-0.517651	-0.324083	0.694790	-0.342270	-0.315419	0.635119	-0.342339	-0.251204	0.640806	-0.345820	-0.251434	0.702420	-0.346206	-0.315055	0.429620	-0.366666	-0.325820	0.416935	-0.488737	-0.373378	0.251730	-0.351834	-0.373417	0.209104	-0.362885	-0.312491	0.215256	-0.360937	-0.319839	0.253686	-0.351443	-0.336168	0.072274	-0.378562	-0.322065	0.081488	-0.456573	-0.386743	0.046289	-0.413507	-0.225008	0.032769	-0.357824	-0.191884	0.043772	-0.430577	-0.168183	0.035029	-0.427468	-0.357210	0.701187	-0.698806	-0.341218	0.641887	-0.705445	-0.277443	0.653683	-0.711005	-0.286054	0.712805	-0.706278	-0.346550	0.421934	-0.684452	-0.319238	0.417595	-0.564586	-0.408719	0.249363	-0.682793	-0.403493	0.210221	-0.676115	-0.345893	0.217136	-0.693916	-0.356552	0.257672	-0.702911	-0.353247	0.076679	-0.675027	-0.333187	0.084549	-0.599202	-0.399811	0.048737	-0.628188	-0.251105	0.035807	-0.706934	-0.202420	0.043117	-0.639270	-0.184751	0.036431	-0.645089	
2	0.0100	-0.373986	1.340708	-0.530040	-0.298779	1.311277	-0.690407	-0.298182	1.307334	-0.370698	-0.255464	1.281871	-0.530291	-0.209255	0.857959	-0.415611	-0.234630	0.853462	-0.652930	-0.250627	0.927476	-0.390194	-0.268208	0.923134	-0.667694	-0.382566	0.898947	-0.483805	-0.391525	0.897613	-0.554594	-0.383957	0.904949	-0.517678	-0.324084	0.694776	-0.342286	-0.315420	0.635121	-0.342354	-0.251210	0.640801	-0.345840	-0.251435	0.702425	-0.346200	-0.315049	0.429610	-0.366676	-0.325803	0.416935	-0.488747	-0.373373	0.251735	-0.351858	-0.373412	0.209088	-0.362875	-0.312473	0.215235	-0.360951	-0.319838	0.253693	-0.351455	-0.336167	0.072277	-0.378575	-0.322041	0.081473	-0.456579	-0.386741	0.046291	-0.413491	-0.225004	0.032769	-0.357822	-0.191885	0.043759	-0.430567	-0.168189	0.035036	-0.427478	-0.357223	0.701175	-0.698807	-0.341250	0.641878	-0.705461	-0.277448	0.653681	-0.711022	-0.286049	0.712840	-0.706338	-0.346561	0.421931	-0.684476	-0.319238	0.417606	-0.564601	-0.408728	0.249339	-0.682780	-0.403475	0.210192	-0.676096	-0.345897	0.217141	-0.693909	-0.356554	0.257657	-0.702902	-0.353252	0.076662	-0.675033	-0.333193	0.084544	-0.599198	-0.399826	0.048742	-0.628178	-0.251114	0.035803	-0.706937	-0.202393	0.043138	-0.639270	-0.184757	0.036411	-0.645079	
3	0.0150	-0.374020	1.340724	-0.530041	-0.298778	1.311278	-0.690433	-0.298230	1.307327	-0.370699	-0.255496	1.281864	-0.530311	-0.209281	0.857958	-0.415620	-0.234655	0.853464	-0.652954	-0.250667	0.927482	-0.390206	-0.268232	0.923144	-0.667711	-0.382595	0.898938	-0.483832	-0.391552	0.897595	-0.554638	-0.383972	0.904920	-0.517694	-0.324098	0.694784	-0.342309	-0.315446	0.635111	-0.342366	-0.251233	0.640803	-0.345860	-0.251454	0.702426	-0.346224	-0.315051	0.429591	-0.366686	-0.325788	0.416937	-0.488771	-0.373371	0.251707	-0.351860	-0.373416	0.209102	-0.362875	-0.312460	0.215231	-0.360953	-0.319824	0.253697	-0.351469	-0.336174	0.072292	-0.378562	-0.322047	0.081479	-0.456582	-0.386742	0.046299	-0.413492	-0.225000	0.032768	-0.357809	-0.191887	0.043761	-0.430564	-0.168193	0.035029	-0.427468	-0.357229	0.701170	-0.698842	-0.341238	0.641874	-0.705473	-0.277449	0.653683	-0.711041	-0.286060	0.712812	-0.706325	-0.346544	0.421905	-0.684496	-0.319216	0.417595	-0.564608	-0.408733	0.249340	-0.682804	-0.403487	0.210195	-0.676110	-0.345910	0.217122	-0.693915	-0.356567	0.257657	-0.702914	-0.353259	0.076676	-0.675032	-0.333185	0.084541	-0.599196	-0.399815	0.048738	-0.628190	-0.251121	0.035803	-0.706945	-0.202407	0.043143	-0.639253	-0.184766	0.036425	-0.645099	
4	0.0200	-0.374051	1.340727	-0.530102	-0.299128	1.311113	-0.690524	-0.298253	1.307253	-0.370721	-0.255488	1.281872	-0.530323	-0.209292	0.857970	-0.415641	-0.234650	0.853466	-0.652966	-0.250900	0.927371	-0.390049	-0.268265	0.923138	-0.667731	-0.383317	0.899481	-0.483366	-0.391524	0.897551	-0.554539	-0.383986	0.904929	-0.517710	-0.324218	0.694657	-0.342235	-0.315427	0.635128	-0.342387	-0.251210	0.640802	-0.345826	-0.251463	0.702431	-0.346262	-0.315041	0.429610	-0.366704	-0.325785	0.416946	-0.488781	-0.373482	0.251524	-0.352098	-0.373403	0.208930	-0.362738	-0.312451	0.215229	-0.360972	-0.319770	0.253940	-0.350794	-0.336263	0.072543	-0.378190	-0.321954	0.081338	-0.456842	-0.386737	0.046289	-0.413501	-0.225000	0.032764	-0.357807	-0.191871	0.043757	-0.430574	-0.168189	0.035030	-0.427473	-0.357198	0.701094	-0.698470	-0.341233	0.641876	-0.705487	-0.277399	0.653682	-0.711165	-0.286072	0.712822	-0.706357	-0.346540	0.421907	-0.684500	-0.319213	0.417595	-0.564620	-0.408778	0.249309	-0.682928	-0.403487	0.210188	-0.676111	-0.345909	0.217122	-0.693915	-0.356623	0.257665	-0.703002	-0.353395	0.076748	-0.675142	-0.333807	0.085202	-0.598992	-0.399817	0.048745	-0.628185	-0.251108	0.035803	-0.706944	-0.202396	0.043150	-0.639265	-0.184584	0.036566	-0.644981	
5	0.0250	-0.374052	1.340705	-0.530054	-0.299193	1.311044	-0.690414	-0.298298	1.307185	-0.370752	-0.255524	1.281858	-0.530317	-0.209376	0.857914	-0.415703	-0.234691	0.853435	-0.653030	-0.250808	0.927332	-0.390099	-0.268301	0.923127	-0.667763	-0.383362	0.899394	-0.483321	-0.391566	0.897467	-0.554521	-0.384064	0.904843	-0.517693	-0.324180	0.694615	-0.342353	-0.315462	0.635156	-0.342282	-0.251166	0.640792	-0.345824	-0.251422	0.702384	-0.346298	-0.315137	0.429605	-0.366743	-0.325847	0.416882	-0.488789	-0.373543	0.251562	-0.352064	-0.373403	0.208914	-0.362731	-0.312429	0.215275	-0.361007	-0.319787	0.253997	-0.350777	-0.336301	0.072562	-0.378244	-0.321931	0.081344	-0.456676	-0.386683	0.046242	-0.413759	-0.224956	0.032766	-0.357870	-0.191885	0.043753	-0.430631	-0.168189	0.035036	-0.427551	-0.357235	0.700972	-0.698460	-0.341306	0.641730	-0.705370	-0.277470	0.653631	-0.711154	-0.286113	0.712737	-0.706333	-0.346535	0.421901	-0.684553	-0.319255	0.417617	-0.564607	-0.408836	0.249256	-0.682982	-0.403524	0.210207	-0.676170	-0.345905	0.217120	-0.693945	-0.356605	0.257604	-0.702897	-0.353333	0.076747	-0.675159	-0.333832	0.085177	-0.598971	-0.399883	0.048742	-0.628177	-0.251140	0.035795	-0.706925	-0.202409	0.043147	-0.639294	-0.184605	0.036574	-0.645010	
6	0.0300	-0.374091	1.340748	-0.530094	-0.299236	1.311075	-0.690464	-0.298304	1.307211	-0.370764	-0.255512	1.281841	-0.530365	-0.209221	0.858123	-0.415643	-0.234646	0.853617	-0.652990	-0.251152	0.927415	-0.390127	-0.268344	0.923120	-0.667794	-0.383397	0.899395	-0.483345	-0.391603	0.897476	-0.554545	-0.384074	0.904850	-0.517704	-0.324158	0.694572	-0.342424	-0.315479	0.635196	-0.342337	-0.251177	0.640804	-0.345850	-0.251432	0.702370	-0.346348	-0.315119	0.429588	-0.366720	-0.325862	0.416908	-0.488737	-0.373541	0.251584	-0.352028	-0.373369	0.208922	-0.362733	-0.312417	0.215227	-0.361031	-0.319787	0.253951	-0.350770	-0.336277	0.072546	-0.378253	-0.321995	0.081320	-0.456785	-0.386771	0.046947	-0.412453	-0.224983	0.032801	-0.357774	-0.191854	0.043795	-0.430477	-0.168146	0.035061	-0.427441	-0.357320	0.701220	-0.698494	-0.341407	0.641934	-0.705512	-0.277407	0.653767	-0.711073	-0.286136	0.712968	-0.706256	-0.346589	0.421937	-0.684526	-0.319270	0.417579	-0.564611	-0.408787	0.249293	-0.682865	-0.403491	0.210196	-0.676149	-0.345942	0.217163	-0.693960	-0.356629	0.257594	-0.702956	-0.353340	0.076769	-0.675141	-0.333855	0.085162	-0.598956	-0.399797	0.048757	-0.628182	-0.251057	0.035711	-0.706873	-0.202354	0.043123	-0.639215	-0.184530	0.036544	-0.644972	
7	0.0350	-0.374119	1.340749	-0.530115	-0.299272	1.311078	-0.690470	-0.298351	1.307202	-0.370769	-0.255541	1.281838	-0.530378	-0.209245	0.858127	-0.415647	-0.234657	0.853630	-0.653005	-0.251170	0.927433	-0.390145	-0.268350	0.923124	-0.667809	-0.383423	0.899405	-0.483361	-0.391620	0.897461	-0.554555	-0.384112	0.904852	-0.517724	-0.324187	0.694566	-0.342439	-0.315475	0.635193	-0.342355	-0.251195	0.640798	-0.345895	-0.251445	0.702363	-0.346379	-0.315108	0.429595	-0.366723	-0.325870	0.416917	-0.488742	-0.373543	0.251579	-0.352018	-0.373388	0.208932	-0.362703	-0.312404	0.215242	-0.361048	-0.319767	0.253974	-0.350800	-0.336278	0.072563	-0.378223	-0.321982	0.081335	-0.456808	-0.386743	0.046939	-0.412476	-0.224990	0.032798	-0.357770	-0.191856	0.043798	-0.430474	-0.168139	0.035068	-0.427439	-0.357342	0.701238	-0.698526	-0.341414	0.641939	-0.705537	-0.277420	0.653778	-0.711088	-0.286140	0.712993	-0.706269	-0.346591	0.421946	-0.684526	-0.319274	0.417583	-0.564607	-0.408791	0.249284	-0.682866	-0.403491	0.210194	-0.676158	-0.345944	0.217156	-0.693969	-0.356604	0.257613	-0.702978	-0.353348	0.076766	-0.675150	-0.333880	0.085173	-0.598962	-0.399793	0.048736	-0.628173	-0.251050	0.035726	-0.706871	-0.202340	0.043117	-0.639215	-0.184541	0.036524	-0.644972	
8	0.0400	-0.374129	1.340748	-0.530127	-0.299273	1.311071	-0.690486	-0.298375	1.307199	-0.370794	-0.255566	1.281838	-0.530390	-0.209258	0.858147	-0.415676	-0.234682	0.853639	-0.653034	-0.251212	0.927420	-0.390145	-0.268368	0.923137	-0.667820	-0.383446	0.899402	-0.483399	-0.391644	0.897465	-0.554577	-0.384127	0.904859	-0.517755	-0.324178	0.694572	-0.342479	-0.315483	0.635189	-0.342386	-0.251205	0.640804	-0.345905	-0.251458	0.702382	-0.346409	-0.315108	0.429601	-0.366751	-0.325862	0.416923	-0.488755	-0.373528	0.251580	-0.352043	-0.373369	0.208921	-0.362733	-0.312393	0.215227	-0.361068	-0.319748	0.253965	-0.350829	-0.336275	0.072573	-0.378237	-0.322006	0.081313	-0.456793	-0.386742	0.046912	-0.412496	-0.224976	0.032798	-0.357778	-0.191842	0.043809	-0.430469	-0.168139	0.035054	-0.427417	-0.357350	0.701255	-0.698534	-0.341434	0.641937	-0.705569	-0.277430	0.653776	-0.711085	-0.286159	0.713001	-0.706279	-0.346601	0.421946	-0.684538	-0.319280	0.417577	-0.564631	-0.408775	0.249286	-0.682858	-0.403491	0.210177	-0.676149	-0.345956	0.217150	-0.693975	-0.356628	0.257589	-0.702950	-0.353353	0.076775	-0.675155	-0.333836	0.085175	-0.598972	-0.399781	0.048737	-0.628173	-0.251051	0.035716	-0.706863	-0.202342	0.043126	-0.639227	-0.184533	0.036505	-0.644986	
